<svg xmlns="http://www.w3.org/2000/svg" xmlns:xlink="http://www.w3.org/1999/xlink" width="816" zoomAndPan="magnify" viewBox="0 0 612 791.999994" height="1056" preserveAspectRatio="xMidYMid meet" version="1.0"><defs><g/><clipPath id="95a0f02fdd"><path d="M 65.421875 214.328125 L 114.921875 214.328125 L 114.921875 263.828125 L 65.421875 263.828125 Z M 65.421875 214.328125 " clip-rule="nonzero"/></clipPath><clipPath id="115b23680d"><path d="M 65.421875 294.558594 L 114.921875 294.558594 L 114.921875 344.058594 L 65.421875 344.058594 Z M 65.421875 294.558594 " clip-rule="nonzero"/></clipPath><clipPath id="53c17b8936"><path d="M 65.421875 374.789062 L 114.921875 374.789062 L 114.921875 424.289062 L 65.421875 424.289062 Z M 65.421875 374.789062 " clip-rule="nonzero"/></clipPath></defs><rect x="-61.2" width="734.4" fill="#ffffff" y="-79.199999" height="950.399992" fill-opacity="1"/><rect x="-61.2" width="734.4" fill="#ffffff" y="-79.199999" height="950.399992" fill-opacity="1"/><rect x="-61.2" width="734.4" fill="#f7f9f7" y="-79.199999" height="950.399992" fill-opacity="1"/><g fill="#000000" fill-opacity="1"><g transform="translate(132.889726, 244.438397)"><g><path d="M 5.4375 -11.964844 C 3.160156 -11.964844 1.136719 -10.691406 1.136719 -8.496094 C 1.136719 -6.253906 2.667969 -5.421875 5.183594 -4.792969 C 6.78125 -4.417969 7.324219 -3.859375 7.324219 -3.042969 C 7.324219 -2.242188 6.558594 -1.734375 5.589844 -1.734375 C 4.519531 -1.734375 3.585938 -2.3125 3.347656 -3.519531 L 0.664062 -3.519531 C 0.867188 -0.984375 2.769531 0.238281 5.640625 0.238281 C 7.988281 0.238281 10.113281 -0.984375 10.113281 -3.261719 C 10.113281 -5.117188 8.992188 -6.339844 6.40625 -6.949219 C 4.519531 -7.394531 3.925781 -7.867188 3.925781 -8.753906 C 3.925781 -9.601562 4.519531 -9.992188 5.351562 -9.992188 C 6.476562 -9.992188 7.085938 -9.296875 7.222656 -8.207031 L 9.90625 -8.207031 C 9.652344 -10.332031 8.363281 -11.964844 5.4375 -11.964844 Z M 5.4375 -11.964844 "/></g></g></g><g fill="#000000" fill-opacity="1"><g transform="translate(143.356893, 244.438397)"><g><path d="M 9.515625 -4.691406 C 9.515625 -7.105469 8.023438 -9.296875 5.132812 -9.296875 C 2.261719 -9.296875 0.441406 -7.222656 0.441406 -4.503906 C 0.441406 -1.308594 2.429688 0.238281 4.960938 0.238281 C 7.171875 0.238281 8.871094 -0.867188 9.363281 -2.957031 L 6.730469 -2.957031 C 6.578125 -2.105469 5.949219 -1.597656 5.011719 -1.597656 C 4.011719 -1.597656 3.261719 -2.105469 3.109375 -3.839844 L 9.464844 -3.839844 C 9.5 -4.164062 9.515625 -4.453125 9.515625 -4.691406 Z M 5.011719 -7.460938 C 6 -7.460938 6.59375 -6.796875 6.746094 -5.523438 L 3.179688 -5.523438 C 3.398438 -6.867188 4.0625 -7.460938 5.011719 -7.460938 Z M 5.011719 -7.460938 "/></g></g></g><g fill="#000000" fill-opacity="1"><g transform="translate(153.348282, 244.438397)"><g><path d="M 6.289062 0 L 8.886719 0 C 8.753906 -1.003906 8.71875 -1.613281 8.71875 -2.292969 L 8.71875 -5.046875 C 8.71875 -5.574219 8.703125 -6.085938 8.667969 -6.507812 C 8.53125 -8.125 7.5625 -9.296875 4.878906 -9.296875 C 2.667969 -9.296875 0.917969 -8.125 0.867188 -6.050781 L 3.414062 -6.050781 C 3.484375 -6.949219 3.941406 -7.460938 4.777344 -7.460938 C 5.574219 -7.460938 5.980469 -7.019531 6.035156 -6.476562 C 6.066406 -6.167969 6.066406 -5.929688 6.066406 -5.691406 L 6.066406 -5.539062 L 5.488281 -5.539062 C 2.292969 -5.539062 0.542969 -4.382812 0.542969 -2.414062 C 0.542969 -0.695312 1.921875 0.238281 3.449219 0.238281 C 4.28125 0.238281 5.046875 0.0507812 5.691406 -0.355469 L 6.101562 -1.324219 Z M 4.503906 -1.597656 C 3.773438 -1.597656 3.28125 -1.953125 3.28125 -2.632812 C 3.28125 -3.6875 4.417969 -4.097656 6.066406 -3.960938 L 6.066406 -3.296875 C 6.066406 -2.175781 5.300781 -1.597656 4.503906 -1.597656 Z M 4.503906 -1.597656 "/></g></g></g><g fill="#000000" fill-opacity="1"><g transform="translate(163.084789, 244.438397)"><g><path d="M 6 -9.296875 C 5.472656 -9.296875 4.808594 -9.058594 4.351562 -8.582031 L 3.671875 -7.324219 L 3.671875 -9.058594 L 1.003906 -9.058594 L 1.003906 0 L 3.671875 0 L 3.671875 -3.789062 C 3.671875 -6.355469 4.570312 -7.207031 6.679688 -7.070312 L 6.679688 -9.226562 C 6.476562 -9.261719 6.289062 -9.296875 6 -9.296875 Z M 6 -9.296875 "/></g></g></g><g fill="#000000" fill-opacity="1"><g transform="translate(169.847663, 244.438397)"><g><path d="M 5.082031 -9.296875 C 2.515625 -9.296875 0.441406 -7.5625 0.441406 -4.453125 C 0.441406 -1.375 2.34375 0.238281 4.859375 0.238281 C 7.222656 0.238281 8.957031 -0.933594 9.3125 -3.210938 L 6.679688 -3.210938 C 6.476562 -2.160156 5.828125 -1.597656 5.011719 -1.597656 C 3.910156 -1.597656 3.179688 -2.515625 3.179688 -4.621094 C 3.179688 -6.542969 3.890625 -7.460938 5.011719 -7.460938 C 5.898438 -7.460938 6.527344 -6.949219 6.714844 -5.710938 L 9.3125 -5.710938 C 9.175781 -7.734375 7.613281 -9.296875 5.082031 -9.296875 Z M 5.082031 -9.296875 "/></g></g></g><g fill="#000000" fill-opacity="1"><g transform="translate(179.58417, 244.438397)"><g><path d="M 9.738281 -6.796875 C 9.535156 -8.378906 8.429688 -9.296875 6.527344 -9.296875 C 5.675781 -9.296875 5.03125 -9.125 4.417969 -8.71875 L 3.671875 -7.628906 L 3.671875 -12.578125 L 1.003906 -12.578125 L 1.003906 0 L 3.671875 0 L 3.671875 -4.199219 C 3.671875 -6.507812 4.453125 -7.445312 5.507812 -7.460938 C 6.542969 -7.460938 7.054688 -6.882812 7.121094 -5.964844 C 7.15625 -5.507812 7.15625 -5.046875 7.15625 -4.707031 L 7.15625 0 L 9.824219 0 L 9.824219 -5.117188 C 9.824219 -5.847656 9.804688 -6.339844 9.738281 -6.796875 Z M 9.738281 -6.796875 "/></g></g></g><g fill="#000000" fill-opacity="1"><g transform="translate(143.277682, 325.259622)"><g><path d="M 4.113281 -9.652344 L 9.976562 -9.652344 L 9.976562 -11.726562 L 1.445312 -11.726562 L 1.445312 0 L 4.113281 0 L 4.113281 -4.84375 L 9.414062 -4.84375 L 9.414062 -6.917969 L 4.113281 -6.917969 Z M 4.113281 -9.652344 "/></g></g></g><g fill="#000000" fill-opacity="1"><g transform="translate(153.523954, 325.259622)"><g><path d="M 2.328125 -12.558594 C 1.480469 -12.558594 0.917969 -12.03125 0.917969 -11.214844 C 0.917969 -10.382812 1.480469 -9.855469 2.328125 -9.855469 C 3.179688 -9.855469 3.757812 -10.382812 3.757812 -11.214844 C 3.757812 -12.03125 3.179688 -12.558594 2.328125 -12.558594 Z M 3.671875 0 L 3.671875 -9.058594 L 1.003906 -9.058594 L 1.003906 0 Z M 3.671875 0 "/></g></g></g><g fill="#000000" fill-opacity="1"><g transform="translate(158.213789, 325.259622)"><g><path d="M 9.738281 -6.796875 C 9.535156 -8.378906 8.429688 -9.296875 6.527344 -9.296875 C 5.675781 -9.296875 5.03125 -9.125 4.417969 -8.71875 L 3.671875 -7.628906 L 3.671875 -9.058594 L 1.003906 -9.058594 L 1.003906 0 L 3.671875 0 L 3.671875 -4.199219 C 3.671875 -6.507812 4.453125 -7.460938 5.507812 -7.460938 C 6.542969 -7.460938 7.054688 -6.882812 7.121094 -5.964844 C 7.15625 -5.507812 7.15625 -5.046875 7.15625 -4.707031 L 7.15625 0 L 9.824219 0 L 9.824219 -5.117188 C 9.824219 -5.847656 9.804688 -6.339844 9.738281 -6.796875 Z M 9.738281 -6.796875 "/></g></g></g><g fill="#000000" fill-opacity="1"><g transform="translate(168.935838, 325.259622)"><g><path d="M 10.128906 -12.492188 L 7.460938 -12.492188 L 7.460938 -7.867188 L 6.867188 -8.820312 C 6.40625 -9.109375 5.507812 -9.296875 4.757812 -9.296875 C 2.429688 -9.296875 0.441406 -7.597656 0.441406 -4.351562 C 0.441406 -1.664062 1.953125 0.238281 4.453125 0.238281 C 5.371094 0.238281 6.269531 0.0351562 6.78125 -0.355469 L 7.460938 -1.359375 L 7.460938 0 L 10.128906 0 Z M 5.300781 -1.597656 C 4.042969 -1.597656 3.179688 -2.71875 3.179688 -4.503906 C 3.179688 -6.476562 4.097656 -7.460938 5.386719 -7.460938 C 6.390625 -7.460938 7.460938 -6.78125 7.460938 -4.84375 L 7.460938 -4.417969 C 7.460938 -2.34375 6.507812 -1.597656 5.300781 -1.597656 Z M 5.300781 -1.597656 "/></g></g></g><g fill="#000000" fill-opacity="1"><g transform="translate(132.889726, 406.080821)"><g><path d="M 5.082031 -9.296875 C 2.515625 -9.296875 0.441406 -7.5625 0.441406 -4.453125 C 0.441406 -1.375 2.34375 0.238281 4.859375 0.238281 C 7.222656 0.238281 8.957031 -0.933594 9.3125 -3.210938 L 6.679688 -3.210938 C 6.476562 -2.160156 5.828125 -1.597656 5.011719 -1.597656 C 3.910156 -1.597656 3.179688 -2.515625 3.179688 -4.621094 C 3.179688 -6.542969 3.890625 -7.460938 5.011719 -7.460938 C 5.898438 -7.460938 6.527344 -6.949219 6.714844 -5.710938 L 9.3125 -5.710938 C 9.175781 -7.734375 7.613281 -9.296875 5.082031 -9.296875 Z M 5.082031 -9.296875 "/></g></g></g><g fill="#000000" fill-opacity="1"><g transform="translate(142.626233, 406.080821)"><g><path d="M 5.21875 -9.296875 C 2.210938 -9.296875 0.441406 -7.359375 0.441406 -4.539062 C 0.441406 -1.714844 2.210938 0.238281 5.21875 0.238281 C 8.207031 0.238281 9.992188 -1.714844 9.992188 -4.539062 C 9.992188 -7.359375 8.207031 -9.296875 5.21875 -9.296875 Z M 5.21875 -1.597656 C 3.941406 -1.597656 3.179688 -2.652344 3.179688 -4.539062 C 3.179688 -6.425781 3.941406 -7.460938 5.21875 -7.460938 C 6.476562 -7.460938 7.238281 -6.425781 7.238281 -4.539062 C 7.238281 -2.652344 6.476562 -1.597656 5.21875 -1.597656 Z M 5.21875 -1.597656 "/></g></g></g><g fill="#000000" fill-opacity="1"><g transform="translate(153.042416, 406.080821)"><g><path d="M 9.738281 -6.796875 C 9.535156 -8.378906 8.429688 -9.296875 6.527344 -9.296875 C 5.675781 -9.296875 5.03125 -9.125 4.417969 -8.71875 L 3.671875 -7.628906 L 3.671875 -9.058594 L 1.003906 -9.058594 L 1.003906 0 L 3.671875 0 L 3.671875 -4.199219 C 3.671875 -6.507812 4.453125 -7.460938 5.507812 -7.460938 C 6.542969 -7.460938 7.054688 -6.882812 7.121094 -5.964844 C 7.15625 -5.507812 7.15625 -5.046875 7.15625 -4.707031 L 7.15625 0 L 9.824219 0 L 9.824219 -5.117188 C 9.824219 -5.847656 9.804688 -6.339844 9.738281 -6.796875 Z M 9.738281 -6.796875 "/></g></g></g><g fill="#000000" fill-opacity="1"><g transform="translate(163.764465, 406.080821)"><g><path d="M 9.738281 -6.796875 C 9.535156 -8.378906 8.429688 -9.296875 6.527344 -9.296875 C 5.675781 -9.296875 5.03125 -9.125 4.417969 -8.71875 L 3.671875 -7.628906 L 3.671875 -9.058594 L 1.003906 -9.058594 L 1.003906 0 L 3.671875 0 L 3.671875 -4.199219 C 3.671875 -6.507812 4.453125 -7.460938 5.507812 -7.460938 C 6.542969 -7.460938 7.054688 -6.882812 7.121094 -5.964844 C 7.15625 -5.507812 7.15625 -5.046875 7.15625 -4.707031 L 7.15625 0 L 9.824219 0 L 9.824219 -5.117188 C 9.824219 -5.847656 9.804688 -6.339844 9.738281 -6.796875 Z M 9.738281 -6.796875 "/></g></g></g><g fill="#000000" fill-opacity="1"><g transform="translate(174.486515, 406.080821)"><g><path d="M 9.515625 -4.691406 C 9.515625 -7.105469 8.023438 -9.296875 5.132812 -9.296875 C 2.261719 -9.296875 0.441406 -7.222656 0.441406 -4.503906 C 0.441406 -1.308594 2.429688 0.238281 4.960938 0.238281 C 7.171875 0.238281 8.871094 -0.867188 9.363281 -2.957031 L 6.730469 -2.957031 C 6.578125 -2.105469 5.949219 -1.597656 5.011719 -1.597656 C 4.011719 -1.597656 3.261719 -2.105469 3.109375 -3.839844 L 9.464844 -3.839844 C 9.5 -4.164062 9.515625 -4.453125 9.515625 -4.691406 Z M 5.011719 -7.460938 C 6 -7.460938 6.59375 -6.796875 6.746094 -5.523438 L 3.179688 -5.523438 C 3.398438 -6.867188 4.0625 -7.460938 5.011719 -7.460938 Z M 5.011719 -7.460938 "/></g></g></g><g fill="#000000" fill-opacity="1"><g transform="translate(184.477904, 406.080821)"><g><path d="M 5.082031 -9.296875 C 2.515625 -9.296875 0.441406 -7.5625 0.441406 -4.453125 C 0.441406 -1.375 2.34375 0.238281 4.859375 0.238281 C 7.222656 0.238281 8.957031 -0.933594 9.3125 -3.210938 L 6.679688 -3.210938 C 6.476562 -2.160156 5.828125 -1.597656 5.011719 -1.597656 C 3.910156 -1.597656 3.179688 -2.515625 3.179688 -4.621094 C 3.179688 -6.542969 3.890625 -7.460938 5.011719 -7.460938 C 5.898438 -7.460938 6.527344 -6.949219 6.714844 -5.710938 L 9.3125 -5.710938 C 9.175781 -7.734375 7.613281 -9.296875 5.082031 -9.296875 Z M 5.082031 -9.296875 "/></g></g></g><g fill="#000000" fill-opacity="1"><g transform="translate(194.214411, 406.080821)"><g><path d="M 4.199219 -7.289062 L 6.117188 -7.289062 L 6.117188 -8.992188 L 4.199219 -8.992188 L 4.199219 -11.269531 L 1.53125 -11.269531 L 1.53125 -8.992188 L 0.152344 -8.992188 L 0.152344 -7.289062 L 1.53125 -7.289062 L 1.53125 -3.128906 C 1.53125 -2.617188 1.53125 -2.210938 1.5625 -1.75 C 1.664062 -0.425781 2.3125 0.222656 4.300781 0.222656 C 4.878906 0.222656 5.40625 0.171875 5.949219 0.0859375 L 5.949219 -1.613281 C 4.589844 -1.53125 4.28125 -1.734375 4.214844 -2.632812 C 4.199219 -2.871094 4.199219 -3.179688 4.199219 -3.484375 Z M 4.199219 -7.289062 "/></g></g></g><g fill="#000000" fill-opacity="1"><g transform="translate(200.637442, 406.080821)"><g/></g></g><g fill="#000000" fill-opacity="1"><g transform="translate(203.797979, 406.080821)"><g><path d="M 6.289062 0 L 8.886719 0 C 8.753906 -1.003906 8.71875 -1.613281 8.71875 -2.292969 L 8.71875 -5.046875 C 8.71875 -5.574219 8.703125 -6.085938 8.667969 -6.507812 C 8.53125 -8.125 7.5625 -9.296875 4.878906 -9.296875 C 2.667969 -9.296875 0.917969 -8.125 0.867188 -6.050781 L 3.414062 -6.050781 C 3.484375 -6.949219 3.941406 -7.460938 4.777344 -7.460938 C 5.574219 -7.460938 5.980469 -7.019531 6.035156 -6.476562 C 6.066406 -6.167969 6.066406 -5.929688 6.066406 -5.691406 L 6.066406 -5.539062 L 5.488281 -5.539062 C 2.292969 -5.539062 0.542969 -4.382812 0.542969 -2.414062 C 0.542969 -0.695312 1.921875 0.238281 3.449219 0.238281 C 4.28125 0.238281 5.046875 0.0507812 5.691406 -0.355469 L 6.101562 -1.324219 Z M 4.503906 -1.597656 C 3.773438 -1.597656 3.28125 -1.953125 3.28125 -2.632812 C 3.28125 -3.6875 4.417969 -4.097656 6.066406 -3.960938 L 6.066406 -3.296875 C 6.066406 -2.175781 5.300781 -1.597656 4.503906 -1.597656 Z M 4.503906 -1.597656 "/></g></g></g><g fill="#000000" fill-opacity="1"><g transform="translate(213.534486, 406.080821)"><g><path d="M 9.738281 -6.796875 C 9.535156 -8.378906 8.429688 -9.296875 6.527344 -9.296875 C 5.675781 -9.296875 5.03125 -9.125 4.417969 -8.71875 L 3.671875 -7.628906 L 3.671875 -9.058594 L 1.003906 -9.058594 L 1.003906 0 L 3.671875 0 L 3.671875 -4.199219 C 3.671875 -6.507812 4.453125 -7.460938 5.507812 -7.460938 C 6.542969 -7.460938 7.054688 -6.882812 7.121094 -5.964844 C 7.15625 -5.507812 7.15625 -5.046875 7.15625 -4.707031 L 7.15625 0 L 9.824219 0 L 9.824219 -5.117188 C 9.824219 -5.847656 9.804688 -6.339844 9.738281 -6.796875 Z M 9.738281 -6.796875 "/></g></g></g><g fill="#000000" fill-opacity="1"><g transform="translate(224.256535, 406.080821)"><g><path d="M 10.128906 -12.492188 L 7.460938 -12.492188 L 7.460938 -7.867188 L 6.867188 -8.820312 C 6.40625 -9.109375 5.507812 -9.296875 4.757812 -9.296875 C 2.429688 -9.296875 0.441406 -7.597656 0.441406 -4.351562 C 0.441406 -1.664062 1.953125 0.238281 4.453125 0.238281 C 5.371094 0.238281 6.269531 0.0351562 6.78125 -0.355469 L 7.460938 -1.359375 L 7.460938 0 L 10.128906 0 Z M 5.300781 -1.597656 C 4.042969 -1.597656 3.179688 -2.71875 3.179688 -4.503906 C 3.179688 -6.476562 4.097656 -7.460938 5.386719 -7.460938 C 6.390625 -7.460938 7.460938 -6.78125 7.460938 -4.84375 L 7.460938 -4.417969 C 7.460938 -2.34375 6.507812 -1.597656 5.300781 -1.597656 Z M 5.300781 -1.597656 "/></g></g></g><g fill="#000000" fill-opacity="1"><g transform="translate(235.403389, 406.080821)"><g/></g></g><g fill="#000000" fill-opacity="1"><g transform="translate(238.563927, 406.080821)"><g><path d="M 5.082031 -9.296875 C 2.515625 -9.296875 0.441406 -7.5625 0.441406 -4.453125 C 0.441406 -1.375 2.34375 0.238281 4.859375 0.238281 C 7.222656 0.238281 8.957031 -0.933594 9.3125 -3.210938 L 6.679688 -3.210938 C 6.476562 -2.160156 5.828125 -1.597656 5.011719 -1.597656 C 3.910156 -1.597656 3.179688 -2.515625 3.179688 -4.621094 C 3.179688 -6.542969 3.890625 -7.460938 5.011719 -7.460938 C 5.898438 -7.460938 6.527344 -6.949219 6.714844 -5.710938 L 9.3125 -5.710938 C 9.175781 -7.734375 7.613281 -9.296875 5.082031 -9.296875 Z M 5.082031 -9.296875 "/></g></g></g><g fill="#000000" fill-opacity="1"><g transform="translate(248.300434, 406.080821)"><g><path d="M 5.21875 -9.296875 C 2.210938 -9.296875 0.441406 -7.359375 0.441406 -4.539062 C 0.441406 -1.714844 2.210938 0.238281 5.21875 0.238281 C 8.207031 0.238281 9.992188 -1.714844 9.992188 -4.539062 C 9.992188 -7.359375 8.207031 -9.296875 5.21875 -9.296875 Z M 5.21875 -1.597656 C 3.941406 -1.597656 3.179688 -2.652344 3.179688 -4.539062 C 3.179688 -6.425781 3.941406 -7.460938 5.21875 -7.460938 C 6.476562 -7.460938 7.238281 -6.425781 7.238281 -4.539062 C 7.238281 -2.652344 6.476562 -1.597656 5.21875 -1.597656 Z M 5.21875 -1.597656 "/></g></g></g><g fill="#000000" fill-opacity="1"><g transform="translate(258.716617, 406.080821)"><g><path d="M 14.957031 -7.035156 C 14.75 -8.277344 13.75 -9.296875 11.980469 -9.296875 C 11.164062 -9.296875 10.570312 -9.125 10.042969 -8.769531 L 9.125 -7.546875 C 8.753906 -8.546875 7.816406 -9.296875 6.304688 -9.296875 C 5.472656 -9.296875 4.894531 -9.125 4.351562 -8.769531 L 3.671875 -7.648438 L 3.671875 -9.058594 L 1.003906 -9.058594 L 1.003906 0 L 3.671875 0 L 3.671875 -4.707031 C 3.671875 -6.558594 4.164062 -7.460938 5.183594 -7.460938 C 6.050781 -7.460938 6.507812 -6.949219 6.628906 -6.050781 C 6.679688 -5.589844 6.695312 -5.097656 6.695312 -4.671875 L 6.695312 0 L 9.347656 0 L 9.347656 -4.707031 C 9.347656 -6.558594 9.855469 -7.460938 10.875 -7.460938 C 11.726562 -7.460938 12.203125 -6.949219 12.304688 -6.050781 C 12.355469 -5.589844 12.371094 -5.097656 12.371094 -4.671875 L 12.371094 0 L 15.039062 0 L 15.039062 -5.351562 C 15.039062 -6.085938 15.023438 -6.578125 14.957031 -7.035156 Z M 14.957031 -7.035156 "/></g></g></g><g fill="#000000" fill-opacity="1"><g transform="translate(274.655249, 406.080821)"><g><path d="M 14.957031 -7.035156 C 14.75 -8.277344 13.75 -9.296875 11.980469 -9.296875 C 11.164062 -9.296875 10.570312 -9.125 10.042969 -8.769531 L 9.125 -7.546875 C 8.753906 -8.546875 7.816406 -9.296875 6.304688 -9.296875 C 5.472656 -9.296875 4.894531 -9.125 4.351562 -8.769531 L 3.671875 -7.648438 L 3.671875 -9.058594 L 1.003906 -9.058594 L 1.003906 0 L 3.671875 0 L 3.671875 -4.707031 C 3.671875 -6.558594 4.164062 -7.460938 5.183594 -7.460938 C 6.050781 -7.460938 6.507812 -6.949219 6.628906 -6.050781 C 6.679688 -5.589844 6.695312 -5.097656 6.695312 -4.671875 L 6.695312 0 L 9.347656 0 L 9.347656 -4.707031 C 9.347656 -6.558594 9.855469 -7.460938 10.875 -7.460938 C 11.726562 -7.460938 12.203125 -6.949219 12.304688 -6.050781 C 12.355469 -5.589844 12.371094 -5.097656 12.371094 -4.671875 L 12.371094 0 L 15.039062 0 L 15.039062 -5.351562 C 15.039062 -6.085938 15.023438 -6.578125 14.957031 -7.035156 Z M 14.957031 -7.035156 "/></g></g></g><g fill="#000000" fill-opacity="1"><g transform="translate(290.593882, 406.080821)"><g><path d="M 9.652344 -9.058594 L 7 -9.058594 L 7 -4.214844 C 7 -2.550781 6.289062 -1.613281 5.199219 -1.613281 C 4.164062 -1.613281 3.6875 -2.160156 3.570312 -3.074219 C 3.519531 -3.535156 3.5 -4.027344 3.5 -4.316406 L 3.5 -9.058594 L 0.851562 -9.058594 L 0.851562 -3.738281 C 0.851562 -3.007812 0.867188 -2.515625 0.933594 -2.054688 C 1.136719 -0.816406 2.261719 0.238281 4.128906 0.238281 C 4.980469 0.238281 5.625 0.0664062 6.238281 -0.339844 L 7 -1.546875 L 7 0 L 9.652344 0 Z M 9.652344 -9.058594 "/></g></g></g><g fill="#000000" fill-opacity="1"><g transform="translate(301.264947, 406.080821)"><g><path d="M 4.199219 -7.289062 L 6.117188 -7.289062 L 6.117188 -8.992188 L 4.199219 -8.992188 L 4.199219 -11.269531 L 1.53125 -11.269531 L 1.53125 -8.992188 L 0.152344 -8.992188 L 0.152344 -7.289062 L 1.53125 -7.289062 L 1.53125 -3.128906 C 1.53125 -2.617188 1.53125 -2.210938 1.5625 -1.75 C 1.664062 -0.425781 2.3125 0.222656 4.300781 0.222656 C 4.878906 0.222656 5.40625 0.171875 5.949219 0.0859375 L 5.949219 -1.613281 C 4.589844 -1.53125 4.28125 -1.734375 4.214844 -2.632812 C 4.199219 -2.871094 4.199219 -3.179688 4.199219 -3.484375 Z M 4.199219 -7.289062 "/></g></g></g><g fill="#000000" fill-opacity="1"><g transform="translate(307.687978, 406.080821)"><g><path d="M 9.515625 -4.691406 C 9.515625 -7.105469 8.023438 -9.296875 5.132812 -9.296875 C 2.261719 -9.296875 0.441406 -7.222656 0.441406 -4.503906 C 0.441406 -1.308594 2.429688 0.238281 4.960938 0.238281 C 7.171875 0.238281 8.871094 -0.867188 9.363281 -2.957031 L 6.730469 -2.957031 C 6.578125 -2.105469 5.949219 -1.597656 5.011719 -1.597656 C 4.011719 -1.597656 3.261719 -2.105469 3.109375 -3.839844 L 9.464844 -3.839844 C 9.5 -4.164062 9.515625 -4.453125 9.515625 -4.691406 Z M 5.011719 -7.460938 C 6 -7.460938 6.59375 -6.796875 6.746094 -5.523438 L 3.179688 -5.523438 C 3.398438 -6.867188 4.0625 -7.460938 5.011719 -7.460938 Z M 5.011719 -7.460938 "/></g></g></g><g clip-path="url(#95a0f02fdd)"><path fill="#d8f366" d="M 108.582031 263.828125 L 71.765625 263.828125 C 68.269531 263.828125 65.425781 261.019531 65.425781 257.570312 L 65.425781 220.585938 C 65.425781 217.136719 68.269531 214.328125 71.765625 214.328125 L 108.582031 214.328125 C 112.078125 214.328125 114.921875 217.136719 114.921875 220.585938 L 114.921875 257.570312 C 114.921875 261.019531 112.078125 263.828125 108.582031 263.828125 " fill-opacity="1" fill-rule="nonzero"/></g><g fill="#000000" fill-opacity="1"><g transform="translate(73.921228, 248.925329)"><g><path d="M 8.042969 -19.527344 C 2.773438 -19.527344 1.136719 -15.144531 1.136719 -9.570312 C 1.136719 -4.023438 2.773438 0.386719 8.042969 0.386719 C 13.3125 0.386719 14.949219 -4.023438 14.949219 -9.570312 C 14.949219 -15.144531 13.3125 -19.527344 8.042969 -19.527344 Z M 8.042969 -1.496094 C 4.992188 -1.496094 3.800781 -4.578125 3.800781 -9.570312 C 3.800781 -14.589844 4.992188 -17.640625 8.042969 -17.640625 C 11.09375 -17.640625 12.285156 -14.589844 12.285156 -9.570312 C 12.285156 -4.578125 11.09375 -1.496094 8.042969 -1.496094 Z M 8.042969 -1.496094 "/></g></g></g><g fill="#000000" fill-opacity="1"><g transform="translate(90.002614, 248.925329)"><g><path d="M 11.261719 -19.136719 L 9.734375 -19.136719 C 9.070312 -19.136719 8.402344 -19 7.65625 -18.527344 L 3.605469 -16.003906 L 3.605469 -13.480469 L 8.875 -16.613281 L 8.875 0 L 11.261719 0 Z M 11.261719 -19.136719 "/></g></g></g><g clip-path="url(#115b23680d)"><path fill="#d8f366" d="M 108.582031 344.058594 L 71.765625 344.058594 C 68.269531 344.058594 65.425781 341.25 65.425781 337.804688 L 65.425781 300.816406 C 65.425781 297.367188 68.269531 294.558594 71.765625 294.558594 L 108.582031 294.558594 C 112.078125 294.558594 114.921875 297.367188 114.921875 300.816406 L 114.921875 337.804688 C 114.921875 341.25 112.078125 344.058594 108.582031 344.058594 " fill-opacity="1" fill-rule="nonzero"/></g><g fill="#000000" fill-opacity="1"><g transform="translate(73.921228, 329.310589)"><g><path d="M 8.042969 -19.527344 C 2.773438 -19.527344 1.136719 -15.144531 1.136719 -9.570312 C 1.136719 -4.023438 2.773438 0.386719 8.042969 0.386719 C 13.3125 0.386719 14.949219 -4.023438 14.949219 -9.570312 C 14.949219 -15.144531 13.3125 -19.527344 8.042969 -19.527344 Z M 8.042969 -1.496094 C 4.992188 -1.496094 3.800781 -4.578125 3.800781 -9.570312 C 3.800781 -14.589844 4.992188 -17.640625 8.042969 -17.640625 C 11.09375 -17.640625 12.285156 -14.589844 12.285156 -9.570312 C 12.285156 -4.578125 11.09375 -1.496094 8.042969 -1.496094 Z M 8.042969 -1.496094 "/></g></g></g><g fill="#000000" fill-opacity="1"><g transform="translate(90.002614, 329.310589)"><g><path d="M 5.132812 -1.941406 L 9.929688 -6.683594 C 13.175781 -9.875 14.589844 -11.648438 14.589844 -14.253906 C 14.589844 -17.113281 12.675781 -19.527344 8.765625 -19.527344 C 4.9375 -19.527344 2.550781 -17.417969 2.164062 -13.421875 L 2.136719 -13.144531 L 4.519531 -13.144531 L 4.546875 -13.421875 C 4.824219 -16.113281 6.019531 -17.640625 8.488281 -17.640625 C 10.789062 -17.640625 11.925781 -15.949219 11.925781 -13.976562 C 11.925781 -12.121094 10.84375 -10.734375 8.597656 -8.429688 L 1.664062 -1.359375 L 1.664062 0 L 14.503906 0 L 14.503906 -1.941406 Z M 5.132812 -1.941406 "/></g></g></g><g clip-path="url(#53c17b8936)"><path fill="#d8f366" d="M 108.582031 424.289062 L 71.765625 424.289062 C 68.269531 424.289062 65.425781 421.480469 65.425781 418.035156 L 65.425781 381.046875 C 65.425781 377.601562 68.269531 374.789062 71.765625 374.789062 L 108.582031 374.789062 C 112.078125 374.789062 114.921875 377.601562 114.921875 381.046875 L 114.921875 418.035156 C 114.921875 421.480469 112.078125 424.289062 108.582031 424.289062 " fill-opacity="1" fill-rule="nonzero"/></g><g fill="#000000" fill-opacity="1"><g transform="translate(73.921228, 409.541748)"><g><path d="M 8.042969 -19.527344 C 2.773438 -19.527344 1.136719 -15.144531 1.136719 -9.570312 C 1.136719 -4.023438 2.773438 0.386719 8.042969 0.386719 C 13.3125 0.386719 14.949219 -4.023438 14.949219 -9.570312 C 14.949219 -15.144531 13.3125 -19.527344 8.042969 -19.527344 Z M 8.042969 -1.496094 C 4.992188 -1.496094 3.800781 -4.578125 3.800781 -9.570312 C 3.800781 -14.589844 4.992188 -17.640625 8.042969 -17.640625 C 11.09375 -17.640625 12.285156 -14.589844 12.285156 -9.570312 C 12.285156 -4.578125 11.09375 -1.496094 8.042969 -1.496094 Z M 8.042969 -1.496094 "/></g></g></g><g fill="#000000" fill-opacity="1"><g transform="translate(90.002614, 409.541748)"><g><path d="M 10.984375 -10.179688 C 12.980469 -10.761719 14.367188 -12.480469 14.367188 -14.671875 C 14.367188 -17.554688 12.148438 -19.527344 8.625 -19.527344 C 4.742188 -19.527344 2.386719 -17.363281 2.023438 -13.894531 L 1.996094 -13.617188 L 4.382812 -13.617188 L 4.410156 -13.894531 C 4.660156 -16.417969 6.296875 -17.640625 8.320312 -17.640625 C 10.34375 -17.640625 11.703125 -16.308594 11.703125 -14.394531 C 11.703125 -11.980469 9.875 -10.648438 7.597656 -10.648438 L 7.128906 -10.648438 L 7.128906 -8.707031 L 7.597656 -8.707031 C 10.707031 -8.707031 12.148438 -7.433594 12.148438 -5.1875 C 12.148438 -2.855469 10.457031 -1.496094 8.097656 -1.496094 C 5.769531 -1.496094 3.9375 -2.691406 3.660156 -5.378906 L 3.632812 -5.65625 L 1.25 -5.65625 L 1.277344 -5.378906 C 1.691406 -1.25 4.242188 0.386719 7.875 0.386719 C 11.566406 0.386719 14.808594 -1.746094 14.808594 -5.324219 C 14.808594 -7.820312 13.339844 -9.511719 10.984375 -10.179688 Z M 10.984375 -10.179688 "/></g></g></g><path stroke-linecap="butt" transform="matrix(-0.000000000000000796, -0.758674, 0.75, -0.000000000000000787, 90.008487, 294.558286)" fill="none" stroke-linejoin="miter" d="M -0.0004054 -0.000899024 L 40.535991 -0.000899024 " stroke="#000000" stroke-width="4" stroke-opacity="1" stroke-miterlimit="4"/><path stroke-linecap="butt" transform="matrix(-0.000000000000000796, -0.758674, 0.75, -0.000000000000000787, 90.008487, 378.730489)" fill="none" stroke-linejoin="miter" d="M 0.0000269641 -0.000899024 L 40.536424 -0.000899024 " stroke="#000000" stroke-width="4" stroke-opacity="1" stroke-miterlimit="4"/></svg>