<svg width="79" height="79" viewBox="0 0 79 79" fill="none" xmlns="http://www.w3.org/2000/svg">
<path d="M39.4682 78.9364C61.2659 78.9364 78.9364 61.2659 78.9364 39.4682C78.9364 17.6705 61.2659 0 39.4682 0C17.6705 0 0 17.6705 0 39.4682C0 61.2659 17.6705 78.9364 39.4682 78.9364Z" fill="#00B174" fill-opacity="0.2"/>
<path d="M32.7401 28.7585L32.7411 28.7595C33.1183 29.1329 33.6119 29.322 34.1054 29.322C34.599 29.322 35.0925 29.1329 35.4698 28.7595L35.4707 28.7586C36.223 28.0063 36.223 26.7837 35.4707 26.0314L28.7561 19.3167C28.0037 18.5644 26.7812 18.5644 26.0289 19.3167L19.3142 26.0314C18.5619 26.7837 18.5619 28.0063 19.3142 28.7586C20.0665 29.5109 21.2891 29.5109 22.0414 28.7586L22.0415 28.7585L27.3908 23.4059L32.7401 28.7585Z" fill="#00B174" stroke="#00B174" stroke-width="0.5"/>
<path d="M25.4621 54.2519C25.4621 55.3166 26.3261 56.1805 27.3908 56.1805C28.4555 56.1805 29.3195 55.3166 29.3195 54.2519V20.6787C29.3195 19.614 28.4555 18.75 27.3908 18.75C26.3261 18.75 25.4621 19.614 25.4621 20.6787V54.2519Z" fill="#00B174" stroke="#00B174" stroke-width="0.5"/>
<path d="M40.8201 25.9646H44.1774C45.2421 25.9646 46.1061 25.1007 46.1061 24.036C46.1061 22.9713 45.2421 22.1073 44.1774 22.1073H40.8201C39.7554 22.1073 38.8914 22.9713 38.8914 24.036C38.8914 25.1007 39.7554 25.9646 40.8201 25.9646Z" fill="#00B174" stroke="#00B174" stroke-width="0.5"/>
<path d="M40.8201 36.0366H50.8921C51.9567 36.0366 52.8207 35.1726 52.8207 34.108C52.8207 33.0433 51.9567 32.1793 50.8921 32.1793H40.8201C39.7554 32.1793 38.8914 33.0433 38.8914 34.108C38.8914 35.1726 39.7554 36.0366 40.8201 36.0366Z" fill="#00B174" stroke="#00B174" stroke-width="0.5"/>
<path d="M40.8201 46.1086H57.6067C58.6714 46.1086 59.5354 45.2446 59.5354 44.1799C59.5354 43.1152 58.6714 42.2513 57.6067 42.2513H40.8201C39.7554 42.2513 38.8914 43.1152 38.8914 44.1799C38.8914 45.2446 39.7554 46.1086 40.8201 46.1086Z" fill="#00B174" stroke="#00B174" stroke-width="0.5"/>
<path d="M40.8201 56.1805H64.3213C65.386 56.1805 66.25 55.3166 66.25 54.2519C66.25 53.1872 65.386 52.3232 64.3213 52.3232H40.8201C39.7554 52.3232 38.8914 53.1872 38.8914 54.2519C38.8914 55.3166 39.7554 56.1805 40.8201 56.1805Z" fill="#00B174" stroke="#00B174" stroke-width="0.5"/>
</svg>
