<svg width="69" height="59" viewBox="0 0 69 59" fill="none" xmlns="http://www.w3.org/2000/svg">
<path d="M68.9579 31.5609C68.9357 29.7087 67.9538 27.9319 66.4329 26.9833C66.4402 25.8464 66.4476 24.702 66.3147 23.5727C65.9973 20.8623 65.1999 18.2573 63.8045 15.9158C63.0883 14.7112 62.2245 13.5819 61.2647 12.573C61.2426 12.5429 61.2204 12.5127 61.1909 12.4902C61.1614 12.4676 61.1244 12.4375 61.1244 12.4073C58.3927 9.65177 54.8119 7.74696 51.0022 7.19735C49.1343 6.92631 47.2443 6.93384 45.4059 7.21993C44.5937 5.60875 43.4346 4.1632 42.0171 3.03387C41.0056 2.22828 39.9719 1.58079 38.7833 1.06883C37.5503 0.541803 36.3099 0.240647 34.9884 0.08254C30.8169 -0.414367 26.4092 1.36245 23.6627 4.59988C22.4372 6.04543 21.47 7.7319 20.9089 9.55389C17.9999 9.98304 15.1648 11.0446 12.7063 12.6633C9.32482 14.8843 6.51187 18.1067 4.90236 21.8787C3.99424 24.0169 3.44051 26.1702 3.19687 28.4891C3.06397 29.769 3.09351 31.0639 3.10089 32.3514C1.81624 33.044 0.804755 34.196 0.295323 35.7017C0.0295323 36.4923 0 37.3054 0 38.1336V46.3702C0 47.4092 0.155044 48.3879 0.583262 49.3441C1.21821 50.7445 2.48071 51.8663 3.91303 52.3707V53.8087C3.91303 54.1852 3.91303 54.5616 3.95733 54.9381C4.07545 55.9921 4.51106 56.9859 5.2789 57.7238C6.73336 59.1317 9.08118 59.4479 10.7645 58.2658C11.6357 57.656 12.278 56.7751 12.5586 55.7286C12.6989 55.2091 12.7063 54.6821 12.7063 54.1475V52.6945H35.0031V53.8238C35.0031 54.2002 34.9884 54.5767 35.0327 54.9456C35.1508 55.9997 35.579 56.9935 36.3469 57.7313C37.8013 59.1392 40.1418 59.4554 41.8325 58.2734C42.7037 57.6635 43.3534 56.7827 43.6413 55.7361C43.7816 55.2166 43.8038 54.6821 43.8038 54.1551V52.3858C45.4059 51.8211 46.6758 50.5713 47.3476 48.8999C47.7315 47.9287 47.7168 46.8972 47.7168 45.8658V44.8644H57.6101V45.6625C57.6101 46.0916 57.6249 46.4907 57.6913 46.9273C57.8242 47.763 58.2672 48.5912 58.88 49.1559C60.2163 50.3982 62.3574 50.6993 63.8636 49.5775C64.624 49.0128 65.1851 48.2599 65.4435 47.3264C65.569 46.8596 65.5838 46.3777 65.5838 45.8959V44.503C67.2155 43.8781 68.5297 42.4928 68.8693 40.6783C69.0391 39.7598 68.9948 38.8187 68.9948 37.8851C68.9579 35.777 68.98 33.6689 68.9579 31.5609ZM26.2542 8.49985C26.3428 8.3568 26.4388 8.22128 26.5348 8.08576C26.5643 8.04811 26.5864 8.018 26.616 7.98035C26.8375 7.70931 27.0737 7.4458 27.3174 7.19735C27.561 6.94889 27.8194 6.70797 28.0852 6.4821C28.1147 6.45199 28.1516 6.4294 28.1812 6.39928C28.3067 6.30894 28.4248 6.21859 28.5503 6.13577C29.0598 5.78191 29.5987 5.48076 30.1598 5.21725C30.8981 4.92362 31.666 4.71281 32.4486 4.57729C33.2386 4.49447 34.036 4.49447 34.8259 4.57729C35.6012 4.70528 36.3542 4.91609 37.0925 5.20219C37.6094 5.44311 38.104 5.71415 38.5765 6.03037C38.6799 6.09813 38.7759 6.16589 38.8792 6.24118C38.8571 6.22612 38.9014 6.26376 39.1229 6.42187C39.3665 6.62515 39.5954 6.83596 39.8169 7.0543C40.0605 7.29522 40.2968 7.5512 40.5183 7.81472C40.5774 7.88248 40.629 7.95024 40.6881 8.02552C40.6881 8.03305 40.6955 8.03305 40.6955 8.04058C40.7102 8.06317 40.725 8.07823 40.7324 8.09329C40.7915 8.1761 40.8505 8.25892 40.9096 8.34927C40.9391 8.39444 40.9687 8.43961 40.9982 8.48479C40.0975 8.88382 39.2262 9.35061 38.3993 9.89269C38.3846 9.90022 38.3772 9.90775 38.3624 9.91528C38.3624 9.91528 38.3624 9.91528 38.355 9.91528C38.3181 9.93787 38.2886 9.96045 38.2517 9.98304C37.0852 10.751 36.0146 11.6545 35.0548 12.6784C32.264 10.8338 29.0155 9.71953 25.7005 9.41837C25.8777 9.10216 26.0622 8.801 26.2542 8.49985ZM7.61195 28.2933C7.83344 26.8402 8.20997 25.4173 8.74894 24.0545C9.08118 23.2941 9.45033 22.5563 9.87855 21.8486C10.1222 21.4345 10.388 21.0355 10.6612 20.644C10.6981 20.5837 10.7424 20.531 10.7867 20.4708C10.7645 20.5009 10.7497 20.516 10.7571 20.5084C10.831 20.3127 11.0894 20.0868 11.2149 19.9287C11.7981 19.221 12.4405 18.5585 13.1197 17.9486C13.2895 17.798 13.4593 17.6475 13.6365 17.4969C13.7104 17.4366 13.7842 17.3764 13.858 17.3162C14.2198 17.0376 14.5889 16.7816 14.9655 16.5332C15.7702 16.0062 16.6045 15.5544 17.4757 15.1554C18.8194 14.6058 20.2222 14.2143 21.6545 13.9884C21.5512 14.0035 21.4478 14.011 21.3371 14.0261C21.5364 13.9959 21.7284 13.9734 21.9277 13.9432C21.8391 13.9583 21.7431 13.9734 21.6545 13.9809C21.9056 13.9508 22.1566 13.9282 22.4076 13.9056C22.3264 13.8905 22.2452 13.8755 22.164 13.8529C22.1566 13.8529 22.1418 13.8454 22.1271 13.8454C22.0975 13.8303 22.0606 13.8152 22.0311 13.8077C22.0754 13.8228 22.1197 13.8378 22.164 13.8454C22.1935 13.8529 22.223 13.8604 22.2526 13.8679H22.26C22.2821 13.8755 22.3043 13.8755 22.3338 13.883C22.3412 13.883 22.3559 13.883 22.3633 13.883C22.3855 13.883 22.415 13.8905 22.4371 13.8905C22.4667 13.8905 22.4962 13.8905 22.5331 13.8981C22.5774 13.8981 22.6143 13.8981 22.6586 13.8981C22.666 13.8981 22.666 13.8981 22.6734 13.8981C22.8727 13.883 23.0795 13.8755 23.2788 13.8679C23.2862 13.8679 23.2936 13.8679 23.301 13.8679C23.3084 13.8679 23.3157 13.8679 23.3231 13.8679C23.3969 13.8679 23.4634 13.8679 23.5372 13.8679C23.552 13.8679 23.5741 13.8679 23.5889 13.8679C23.648 13.8679 23.7144 13.8604 23.7735 13.8604L23.7809 13.8529C23.7956 13.8529 23.8104 13.8604 23.8252 13.8604C23.9211 13.8604 24.0245 13.8604 24.1205 13.8679C24.1426 13.8679 24.1574 13.8679 24.1796 13.8679C24.3198 13.8679 24.4601 13.8755 24.593 13.883C24.6595 13.883 24.7333 13.8905 24.7997 13.8905C25.1467 13.9056 25.4937 13.9357 25.8334 13.9734C25.9072 13.9809 25.9884 13.9884 26.0622 14.0035L26.0696 14.011C26.1287 14.0185 26.1804 14.0261 26.2394 14.0411C26.2837 14.0486 26.3354 14.0562 26.3797 14.0637C26.3354 14.0562 26.2911 14.0486 26.2468 14.0411C26.6381 14.1013 27.0294 14.1691 27.4133 14.2595C28.3731 14.4853 29.2886 14.7639 30.2484 15.1403V15.1554C30.2337 15.1479 30.2263 15.1479 30.2189 15.1403C30.2189 15.1403 30.2189 15.1403 30.2189 15.1479C30.2411 15.1554 30.2632 15.1704 30.2854 15.1855C30.3001 15.193 30.3075 15.2006 30.3223 15.2081C30.3444 15.2156 30.3592 15.2307 30.3813 15.2382C30.4035 15.2457 30.4182 15.2533 30.4404 15.2683C30.5068 15.2984 30.5733 15.3286 30.6397 15.3662C30.6545 15.3737 30.6619 15.3813 30.6767 15.3813C30.7431 15.4114 30.8022 15.4415 30.8686 15.4716C30.876 15.4716 30.876 15.4791 30.8834 15.4791C30.9351 15.5017 30.9867 15.5318 31.0384 15.5619C31.0532 15.5695 31.0753 15.5845 31.0901 15.5921C31.127 15.6147 31.1639 15.6297 31.2009 15.6523C31.2747 15.6899 31.3411 15.7276 31.415 15.7652C31.4519 15.7878 31.4888 15.8029 31.5183 15.8255C31.5405 15.8255 31.5626 15.833 31.5848 15.8405C31.5922 15.848 31.5995 15.848 31.6069 15.8556C31.6291 15.8706 31.6512 15.8857 31.6734 15.9007C31.6881 15.9158 31.7103 15.9233 31.7251 15.9384C31.7398 15.9459 31.7546 15.9535 31.762 15.961C31.7989 15.9836 31.8432 15.9986 31.8801 16.0287C31.9318 16.0589 31.9835 16.089 32.0351 16.1191C32.0721 16.1417 32.1164 16.1643 32.1533 16.1944C32.2123 16.232 32.2714 16.2697 32.3305 16.2998C32.3378 16.2998 32.3378 16.3073 32.3452 16.3073C32.4117 16.345 32.4707 16.3826 32.5372 16.4278C32.6775 16.5181 32.8177 16.6085 32.9506 16.6988C33.0171 16.744 33.0835 16.7892 33.15 16.8343C33.2164 16.8795 33.2829 16.9247 33.3493 16.9699C33.3862 16.9924 33.4158 17.015 33.4527 17.0376C33.5265 17.0828 33.6077 17.128 33.6816 17.1656C33.7259 17.2183 33.7702 17.271 33.8218 17.3087C33.8218 17.3087 33.8218 17.3087 33.8292 17.3162C33.8366 17.3237 33.8366 17.3237 33.844 17.3237C33.844 17.3237 33.8514 17.3312 33.8588 17.3312L33.8735 17.3388C33.8735 17.3388 33.8735 17.3388 33.8735 17.3463C33.9326 17.3915 33.9843 17.4442 34.0433 17.4893V17.4743C34.0507 17.4818 34.0581 17.4743 34.0581 17.4743C34.0655 17.4743 34.0655 17.4969 34.0729 17.5044C34.0803 17.5119 34.0876 17.527 34.095 17.527C34.1245 17.5496 34.1541 17.5797 34.191 17.6098C34.191 17.6098 34.191 17.6173 34.1984 17.6173C34.2205 17.6324 34.2427 17.655 34.2648 17.67C34.287 17.6926 34.3165 17.7152 34.3387 17.7303C34.4125 17.798 34.4937 17.8658 34.5675 17.9336C34.7226 18.0691 34.8702 18.2121 35.0179 18.3552C35.0917 18.4305 35.1656 18.4982 35.2394 18.5735C35.3132 18.6488 35.3871 18.7166 35.4609 18.7918C35.4904 18.822 35.52 18.8521 35.5495 18.8822C35.5716 18.9048 35.5864 18.9198 35.6085 18.9424C35.6307 18.965 35.6528 18.9876 35.675 19.0102C35.7267 19.0629 35.771 19.1081 35.8153 19.1608C35.8227 19.1683 35.83 19.1758 35.8374 19.1909C35.8891 19.2436 35.9334 19.2963 35.9777 19.349C36.022 19.3942 36.0663 19.4469 36.1106 19.492C36.2066 19.605 36.3026 19.7179 36.3985 19.8308C36.465 19.9137 36.5388 19.9965 36.6053 20.0793C36.6422 20.1245 36.6791 20.1696 36.716 20.2148C36.7234 20.2223 36.7308 20.2299 36.7382 20.2374C36.7529 20.26 36.7677 20.275 36.7898 20.2976C36.7972 20.3052 36.8046 20.3202 36.812 20.3277C36.8194 20.3428 36.8341 20.3579 36.8415 20.3729L36.8563 20.3955C36.8563 20.3955 36.8563 20.403 36.8637 20.403C36.8784 20.4181 36.8858 20.4331 36.9006 20.4482C36.8932 20.4331 36.8784 20.4256 36.871 20.4181C36.8784 20.4256 36.8784 20.4331 36.8858 20.4407C36.8932 20.4482 36.8932 20.4557 36.9006 20.4557C36.9006 20.4633 36.908 20.4633 36.9154 20.4708C36.9449 20.516 36.9744 20.5536 37.0039 20.5988C37.0925 20.7268 37.1811 20.8548 37.2624 20.9828C37.2919 21.0204 37.314 21.0656 37.3436 21.1032L37.3509 21.1107C37.3657 21.1333 37.3805 21.1559 37.3953 21.1785C37.4174 21.2161 37.4469 21.2613 37.4691 21.299C37.5208 21.3743 37.5724 21.4571 37.6167 21.5399C37.6684 21.6152 37.7127 21.698 37.7644 21.7808C37.8013 21.841 37.8382 21.9013 37.8751 21.9615C38.0523 22.2627 38.2222 22.5714 38.3772 22.88C38.4436 23.008 38.5027 23.1285 38.5618 23.2565C38.6356 23.4071 38.7021 23.5501 38.7759 23.7007C38.7907 23.7383 38.8128 23.776 38.8276 23.8211C38.8571 23.8889 38.894 23.9642 38.9235 24.032C38.8866 23.9341 38.8497 23.8362 38.8054 23.7383C38.8792 23.919 38.9531 24.0997 39.0269 24.2804C38.99 24.1976 38.9605 24.1223 38.9235 24.0395C38.9605 24.1223 38.99 24.2126 39.0195 24.2955C39.0564 24.3858 39.0934 24.4837 39.1229 24.574C39.1598 24.6719 39.1893 24.7623 39.2189 24.8601C39.241 24.9128 39.2558 24.9655 39.2705 25.0182C39.3001 25.1086 39.3296 25.1914 39.3591 25.2818C39.3739 25.3269 39.3887 25.3721 39.4034 25.4173C39.4108 25.4474 39.4256 25.485 39.433 25.5151C39.4551 25.5754 39.4699 25.6431 39.492 25.7034C39.4994 25.726 39.5068 25.7485 39.5142 25.7711C39.529 25.8088 39.5363 25.8539 39.5511 25.8916C39.5806 25.9819 39.6028 26.0723 39.6249 26.1702C39.6471 26.2605 39.6692 26.3509 39.6914 26.4337C39.7135 26.5316 39.7431 26.6294 39.7652 26.7273C39.7726 26.7424 39.7726 26.7499 39.7726 26.7649C39.7947 26.8478 39.8095 26.9381 39.8317 27.0209C39.839 27.036 39.839 27.0586 39.8464 27.0736C39.8612 27.1414 39.876 27.2092 39.8907 27.2769C39.8981 27.3146 39.9055 27.3522 39.9129 27.3898C39.9203 27.4425 39.935 27.4877 39.9424 27.5404C39.9498 27.5931 39.9646 27.6458 39.9719 27.6985C39.9793 27.7437 39.9867 27.7813 39.9941 27.8265C39.9941 27.8341 40.0015 27.8491 40.0015 27.8642C40.0089 27.9093 40.0162 27.962 40.0236 28.0072C40.0236 28.0298 40.031 28.0449 40.031 28.0674C40.0384 28.1352 40.0532 28.203 40.0605 28.2632V28.2707C40.1418 29.0161 40.186 29.769 40.1934 30.5219C40.1934 30.6047 40.2008 30.6875 40.2082 30.7703V30.8456H10.137C9.25099 30.8456 8.36502 30.8381 7.48643 30.8381C7.48643 29.9948 7.52335 29.1441 7.61195 28.2933ZM14.0574 42.5154C13.9614 44.4127 12.6398 46.1594 10.7645 46.5358C9.00735 46.8897 7.20588 46.1293 6.27561 44.5482C5.33796 42.9596 5.5816 40.9569 6.72598 39.5565C7.78914 38.2616 9.68659 37.7421 11.237 38.3218C12.8908 38.9392 13.9909 40.46 14.0647 42.2519C14.0647 42.2594 14.0647 42.2669 14.0647 42.2745C14.0647 42.3046 14.0647 42.3347 14.0647 42.3573C14.0647 42.41 14.0574 42.4627 14.0574 42.5154ZM29.6061 43.3586H18.0811C17.2542 43.3586 16.6414 42.666 16.6045 41.8529C16.5676 41.0397 17.3059 40.3471 18.0811 40.3471H29.6061C30.433 40.3471 31.0458 41.0397 31.0827 41.8529C31.1196 42.666 30.3813 43.3586 29.6061 43.3586ZM42.054 42.5229C41.9432 44.488 40.5478 46.2648 38.5839 46.5659C36.7825 46.837 34.8702 45.9712 34.1024 44.2169C33.3789 42.5606 33.6373 40.5504 34.981 39.2855C36.2656 38.0658 38.0893 37.7948 39.6766 38.5251C41.1015 39.1801 41.9875 40.6783 42.0614 42.2444C42.0614 42.2895 42.0613 42.3347 42.0687 42.3723C42.0613 42.4175 42.0613 42.4702 42.054 42.5229ZM53.1729 36.8085H47.606C47.5396 36.2514 47.4288 35.7093 47.2147 35.1823C47.2 35.1521 47.1926 35.122 47.1778 35.0919C47.1704 35.0768 47.1631 35.0618 47.1557 35.0467C47.1114 34.9489 47.0671 34.8434 47.0154 34.7456C47.0154 34.738 47.008 34.7305 47.008 34.7305V34.723C47.0006 34.7079 46.9932 34.6929 46.9859 34.6778C46.9416 34.595 46.8973 34.5122 46.8456 34.4369C46.8456 34.4294 46.8382 34.4294 46.8382 34.4218C46.816 34.3842 46.7939 34.3541 46.7717 34.3164C46.6536 34.1357 46.5281 33.9626 46.3952 33.7969H53.1729C53.9998 33.7969 54.6126 34.4896 54.6495 35.3027C54.6864 36.1158 53.9481 36.8085 53.1729 36.8085ZM61.8111 25.5151H44.0326C43.3017 22.4735 41.9285 19.62 39.9867 17.1656C39.9276 17.0828 39.8612 17.0075 39.7947 16.9322C39.7726 16.9096 39.7578 16.8795 39.7357 16.8569C39.7135 16.8343 39.6914 16.8042 39.6766 16.7816C39.6323 16.7289 39.588 16.6762 39.5437 16.6235C39.2262 16.2471 38.8866 15.8857 38.5396 15.5318C38.5396 15.5318 38.5396 15.5318 38.547 15.5243C38.5987 15.4716 38.643 15.4264 38.6947 15.3737C38.6947 15.3737 38.7021 15.3737 38.7021 15.3662C38.7168 15.3511 38.7242 15.3436 38.739 15.3286C38.7464 15.321 38.7537 15.3135 38.7611 15.306C38.8128 15.2533 38.8645 15.2081 38.9162 15.1554C38.9383 15.1328 38.9678 15.1102 38.99 15.0801C39.0343 15.0425 39.0786 14.9973 39.1229 14.9596C39.182 14.9069 39.241 14.8467 39.3075 14.794C39.3222 14.7865 39.3296 14.7714 39.3444 14.7639C39.3739 14.7413 39.4034 14.7112 39.433 14.6886C39.4477 14.6735 39.4625 14.6585 39.4847 14.651L39.492 14.6434C39.4994 14.6359 39.5142 14.6208 39.5216 14.6133C39.5511 14.5907 39.5806 14.5606 39.6102 14.538C39.6397 14.5154 39.6692 14.4853 39.6988 14.4627C39.7062 14.4552 39.7283 14.4401 39.7504 14.4251C39.7578 14.4251 39.7578 14.4176 39.7652 14.41C39.7726 14.4025 39.7726 14.4025 39.78 14.395C39.7874 14.395 39.7874 14.3799 39.7947 14.3724V14.3573C39.8021 14.3573 39.8095 14.3573 39.8169 14.3498C39.8169 14.3498 39.8095 14.3498 39.8095 14.3573H39.8169C39.8243 14.3573 39.839 14.3423 39.8464 14.3347C39.8464 14.3347 39.8464 14.3347 39.8538 14.3272C39.8538 14.3272 39.8538 14.3272 39.8464 14.3272C39.8538 14.3197 39.8612 14.3122 39.876 14.3046C39.8907 14.2971 39.9055 14.282 39.9203 14.2745C39.935 14.267 39.9498 14.2519 39.9646 14.2444C40.0089 14.2067 40.0532 14.1766 40.0975 14.1465C40.1048 14.139 40.1122 14.139 40.1196 14.1315C40.2082 14.0637 40.2968 14.0035 40.3854 13.9432C40.4297 13.9131 40.4814 13.8755 40.5257 13.8454C40.5552 13.8228 40.5847 13.8077 40.6143 13.7851C40.7693 13.6797 40.9317 13.5743 41.0942 13.4764C41.1385 13.4463 41.1828 13.4237 41.2271 13.3936C41.3157 13.3409 41.4116 13.2882 41.5002 13.2355C41.5888 13.1828 41.6848 13.1301 41.7808 13.0849C41.8768 13.0322 41.9654 12.9871 42.0614 12.9344C42.1056 12.9118 42.1573 12.8817 42.2016 12.8591C42.2459 12.8365 42.2976 12.8139 42.3419 12.7913C42.3493 12.7913 42.3567 12.7838 42.3567 12.7838C42.3714 12.7763 42.3862 12.7687 42.401 12.7612C42.4231 12.7537 42.4453 12.7386 42.46 12.7311C42.5191 12.701 42.5782 12.6709 42.6446 12.6407C42.7111 12.6106 42.7775 12.5805 42.8366 12.5504H42.844C42.9104 12.5278 42.9695 12.4977 43.0359 12.4751C43.2057 12.4073 43.3755 12.3471 43.5453 12.2869C43.6709 12.2417 43.789 12.2041 43.9145 12.1589H43.9219C44.7193 11.9029 45.5388 11.7072 46.3657 11.5716C46.3731 11.5716 46.3731 11.5716 46.3731 11.5716C47.606 11.4286 48.8464 11.4286 50.0794 11.5716C51.2754 11.7599 52.4419 12.0911 53.5642 12.5429C54.4058 12.9268 55.218 13.3786 55.9858 13.9056C56.1778 14.0411 56.3697 14.1766 56.5617 14.3197C56.9013 14.6208 56.8053 14.523 56.6946 14.4251C56.7389 14.4552 56.7832 14.4928 56.8201 14.5305C57.2114 14.8618 57.5953 15.2156 57.9571 15.5845C58.3041 15.9384 58.6363 16.3148 58.9538 16.6988C58.9907 16.7515 59.035 16.7967 59.0793 16.8494C59.1089 16.887 59.1384 16.9322 59.1679 16.9774C59.3156 17.1807 59.4559 17.3839 59.5961 17.5948C60.1056 18.3702 60.5486 19.1909 60.9177 20.0416C61.3681 21.1936 61.6855 22.3907 61.8775 23.6179C61.944 24.2428 61.9735 24.8752 61.9883 25.5001C61.9366 25.5151 61.8701 25.5151 61.8111 25.5151Z" fill="#00B174"/>
</svg>
