<svg width="50" height="50" viewBox="0 0 50 50" fill="none" xmlns="http://www.w3.org/2000/svg">
<circle cx="24.7961" cy="24.6988" r="24.565" fill="#F2B846"/>
<path d="M32.4622 28.5909C32.4472 28.9542 32.4105 29.3163 32.3523 29.6752C32.277 30.0425 32.1683 30.4021 32.0275 30.7495C31.9508 30.9228 31.8726 31.0893 31.7926 31.2492C31.7077 31.4141 31.6027 31.569 31.5028 31.7489C31.3041 32.0517 31.0765 32.3345 30.8232 32.5934C30.5839 32.8337 30.3285 33.0574 30.0587 33.263C29.8017 33.4468 29.5329 33.6137 29.2542 33.7627C28.2436 34.3072 27.1435 34.666 26.0062 34.822H25.8913V37.5553H22.8932V34.807H22.7083C21.7109 34.6306 20.7335 34.3561 19.7901 33.9875C18.8816 33.6432 17.9969 33.2392 17.1417 32.7783L18.376 30.045C19.9219 30.5641 21.5236 30.8995 23.148 31.0443C23.4932 31.0615 23.8391 31.0498 24.1823 31.0094C24.5333 30.9661 24.8806 30.8976 25.2217 30.8045C25.8613 30.6537 26.4699 30.3934 27.0206 30.035C27.3777 29.8351 27.6496 29.5117 27.7851 29.1255C27.8251 29.0656 27.7851 28.9706 27.8251 28.9057C27.8651 28.8407 27.8251 28.7208 27.8251 28.6458C27.819 28.5649 27.7876 28.4879 27.7351 28.426C27.6442 28.3109 27.5383 28.2084 27.4203 28.1212C27.1856 27.9542 26.9383 27.8055 26.6808 27.6764C25.9725 27.3325 25.2432 27.0338 24.4972 26.782C23.6777 26.4722 22.8032 26.1624 21.8688 25.7526C21.3731 25.5424 20.8923 25.2986 20.4297 25.0231C19.8899 24.7088 19.3871 24.3351 18.9306 23.9088C18.364 23.3889 17.9055 22.7623 17.5815 22.0649C17.5015 21.8701 17.4266 21.6752 17.3566 21.4803C17.2866 21.2854 17.2617 21.1055 17.2217 20.9207C17.1806 20.7297 17.1539 20.536 17.1417 20.341C17.1258 20.1431 17.1258 19.9443 17.1417 19.7464C17.1562 18.9381 17.3635 18.1449 17.7464 17.4328C18.0895 16.7683 18.5678 16.1828 19.1505 15.7139C20.1806 14.9178 21.4095 14.42 22.7033 14.2748H22.8932V11.8413H25.8913V14.3897C26.8694 14.5377 27.8361 14.7531 28.7845 15.0343C29.7129 15.3013 30.6241 15.625 31.5128 16.0037L30.5634 18.8469C29.7789 18.702 28.8994 18.5521 28.0649 18.4572C27.2304 18.3622 26.391 18.2923 25.5665 18.2823C25.1617 18.2823 24.762 18.2823 24.3722 18.2823C24.0355 18.2982 23.701 18.345 23.3729 18.4222C22.8734 18.5226 22.4115 18.7595 22.0387 19.1068C21.9308 19.2095 21.8487 19.3362 21.7988 19.4766C21.7698 19.5676 21.7698 19.6654 21.7988 19.7564C21.7988 19.7564 21.7988 19.8063 21.7988 19.8313C21.7937 19.8594 21.7937 19.8882 21.7988 19.9163C21.8123 19.9467 21.8223 19.9786 21.8288 20.0112C21.8419 20.023 21.8507 20.0389 21.8538 20.0562C21.9321 20.1631 22.0245 20.2589 22.1286 20.341C22.6415 20.7123 23.201 21.0147 23.7926 21.2405C24.5071 21.5503 25.3366 21.8351 26.1961 22.1649C27.1439 22.5196 28.067 22.9369 28.9594 23.4141C29.4938 23.7096 29.9961 24.0595 30.4584 24.4584C31.0467 24.9442 31.5368 25.5378 31.9025 26.2074C32.2781 26.9453 32.4701 27.7629 32.4622 28.5909Z" fill="#FFF6E4"/>
</svg>
