<svg width="51" height="50" viewBox="0 0 51 50" fill="none" xmlns="http://www.w3.org/2000/svg">
<circle cx="25.5" cy="24.8355" r="24.565" fill="#323F83"/>
<path d="M18.8151 17.1359C19.2468 17.1359 19.6688 17.0079 20.0277 16.768C20.3866 16.5282 20.6664 16.1873 20.8316 15.7885C20.9968 15.3896 21.04 14.9508 20.9558 14.5274C20.8716 14.104 20.6637 13.7151 20.3584 13.4098C20.0532 13.1046 19.6643 12.8967 19.2409 12.8125C18.8175 12.7282 18.3786 12.7714 17.9798 12.9366C17.5809 13.1018 17.2401 13.3816 17.0002 13.7405C16.7604 14.0995 16.6324 14.5215 16.6323 14.9532C16.6323 15.2398 16.6888 15.5236 16.7985 15.7885C16.9082 16.0533 17.069 16.2939 17.2716 16.4966C17.4743 16.6993 17.7149 16.8601 17.9798 16.9698C18.2446 17.0794 18.5284 17.1359 18.8151 17.1359Z" fill="#D1D0FA"/>
<path d="M31.6223 25.5701C31.6282 25.4862 31.6475 25.4064 31.6475 25.321C31.6487 24.5568 31.4065 23.8121 30.956 23.1948C30.5055 22.5774 29.8701 22.1196 29.142 21.8877C28.4138 21.6557 27.6307 21.6617 26.9061 21.9047C26.1816 22.1477 25.5533 22.6151 25.1122 23.2393C24.6493 22.6315 24.0526 22.1387 23.3683 21.7989C22.6841 21.4591 21.9307 21.2816 21.1668 21.28C20.0255 21.281 18.9186 21.6704 18.028 22.3841C17.1374 23.0978 16.5163 24.0933 16.2667 25.207C15.0183 25.5998 13.9521 26.427 13.2613 27.5385C12.5705 28.65 12.3009 29.9723 12.5014 31.2656C12.7019 32.5589 13.3592 33.7375 14.3541 34.5876C15.349 35.4378 16.6157 35.9033 17.9244 35.8997C17.9973 35.8997 18.065 35.8811 18.1372 35.8782C18.5194 36.2982 18.9849 36.634 19.5039 36.8642C20.023 37.0945 20.5843 37.2142 21.1521 37.2157C21.7199 37.2172 22.2819 37.1005 22.8021 36.873C23.3224 36.6455 23.7896 36.3122 24.174 35.8943C24.5826 36.398 25.1207 36.7809 25.7304 37.0019C26.3402 37.2229 26.9986 37.2737 27.635 37.1489C28.2715 37.024 28.8619 36.7282 29.3429 36.2932C29.8239 35.8581 30.1774 35.3003 30.3654 34.6796C31.464 34.6414 32.5139 34.2167 33.33 33.4802C34.1462 32.7437 34.676 31.7427 34.8263 30.6537C34.9766 29.5647 34.7376 28.4576 34.1514 27.5276C33.5653 26.5976 32.6696 25.9044 31.6223 25.5701Z" fill="#D1D0FA"/>
<path d="M35.8257 12.0916C35.8283 12.0553 35.8366 12.0207 35.8366 11.9837C35.8371 11.6527 35.7322 11.3301 35.5371 11.0628C35.342 10.7954 35.0668 10.5971 34.7514 10.4966C34.436 10.3961 34.0968 10.3987 33.7829 10.504C33.4691 10.6092 33.1969 10.8117 33.0059 11.082C32.8054 10.8188 32.5469 10.6053 32.2505 10.4581C31.9542 10.311 31.6279 10.2341 31.297 10.2334C30.8026 10.2338 30.3232 10.4025 29.9374 10.7116C29.5517 11.0207 29.2826 11.452 29.1745 11.9343C28.6338 12.1045 28.1719 12.4628 27.8727 12.9442C27.5735 13.4257 27.4567 13.9984 27.5436 14.5586C27.6304 15.1188 27.9151 15.6293 28.3461 15.9975C28.777 16.3658 29.3257 16.5674 29.8926 16.5658C29.9241 16.5658 29.9534 16.5578 29.9847 16.5565C30.1503 16.7384 30.3519 16.8839 30.5767 16.9836C30.8015 17.0833 31.0447 17.1352 31.2906 17.1358C31.5366 17.1365 31.78 17.0859 32.0053 16.9874C32.2307 16.8889 32.433 16.7445 32.5995 16.5635C32.7765 16.7816 33.0096 16.9475 33.2737 17.0432C33.5378 17.139 33.823 17.161 34.0986 17.1069C34.3743 17.0528 34.63 16.9247 34.8384 16.7363C35.0468 16.5478 35.1999 16.3062 35.2813 16.0373C35.7572 16.0208 36.2119 15.8368 36.5654 15.5178C36.9189 15.1988 37.1484 14.7652 37.2135 14.2935C37.2786 13.8219 37.1751 13.3423 36.9212 12.9395C36.6673 12.5367 36.2793 12.2364 35.8257 12.0916Z" fill="#D1D0FA"/>
</svg>
